<svg width="50" height="33" viewBox="0 0 50 33" fill="none" xmlns="http://www.w3.org/2000/svg">
<path d="M18.2267 32.342C18.1436 32.3419 18.0612 32.3262 17.984 32.2954C16.1432 32.2928 14.3026 32.2665 12.4626 32.2165C11.1317 32.184 9.89669 32.1544 8.46695 32.1544C6.2223 32.1521 4.07022 31.2601 2.48288 29.674C0.895551 28.0879 0.00261545 25.9373 0 23.694C0 20.8673 1.36905 18.2889 3.68515 16.7105C3.49549 15.7874 3.39996 14.8474 3.40005 13.905C3.40005 6.23876 9.64122 0 17.315 0C19.8279 0.00247131 22.2934 0.683533 24.4509 1.97117C26.6084 3.2588 28.3776 5.10516 29.5715 7.315C30.357 6.51006 31.2964 5.87114 32.3339 5.4362C33.3714 5.00125 34.4858 4.77915 35.6108 4.7831C36.8971 4.78418 38.1662 5.07782 39.322 5.64176C40.4779 6.20571 41.4901 7.02517 42.2821 8.03805C43.074 9.05093 43.6249 10.2307 43.893 11.4879C44.1611 12.7451 44.1393 14.0468 43.8294 15.2944C45.6053 15.7952 47.169 16.8618 48.2828 18.3321C49.3966 19.8025 49.9996 21.596 50 23.4401C50 28.1062 46.2019 31.9033 41.5331 31.9033C39.3567 31.9033 34.4154 32.0162 29.6378 32.1262C24.8151 32.239 20.2605 32.342 18.2267 32.342ZM17.315 1.3132C10.3667 1.3132 4.71405 6.96095 4.71405 13.905C4.71405 14.9022 4.83261 15.8966 5.06549 16.86C5.09811 16.9955 5.0867 17.1379 5.0329 17.2665C4.9791 17.3951 4.88571 17.5032 4.76627 17.5752C3.70893 18.208 2.83453 19.1049 2.229 20.1777C1.62348 21.2505 1.30766 22.4623 1.3126 23.694C1.31484 25.5891 2.06921 27.406 3.4102 28.7459C4.75119 30.0858 6.56927 30.8393 8.46553 30.8412C9.90657 30.8412 11.1514 30.8708 12.4936 30.9033C14.0532 30.9399 15.7455 30.9808 18.0404 30.9808C18.1235 30.981 18.2059 30.9968 18.2832 31.0274C20.3339 31.0246 25.0466 30.9174 29.6054 30.813C34.3914 30.703 39.3397 30.5901 41.5316 30.5901C43.4283 30.5879 45.2466 29.8338 46.5876 28.4934C47.9285 27.1529 48.6827 25.3356 48.6846 23.4401C48.685 21.7777 48.1054 20.1671 47.0455 18.8857C45.9857 17.6043 44.512 16.7324 42.8781 16.42C42.7858 16.4024 42.6984 16.3652 42.6218 16.311C42.5451 16.2567 42.4811 16.1865 42.4339 16.1053C42.3868 16.0241 42.3577 15.9337 42.3486 15.8403C42.3396 15.7468 42.3507 15.6525 42.3813 15.5638C42.7488 14.4871 42.8542 13.3384 42.6887 12.213C42.5232 11.0875 42.0916 10.0177 41.4297 9.09223C40.7678 8.16679 39.8947 7.41239 38.8827 6.89161C37.8707 6.37083 36.7491 6.09867 35.6108 6.09771C34.5139 6.09457 33.4312 6.34518 32.4473 6.82995C31.4635 7.31471 30.6053 8.02047 29.9399 8.89197C29.871 8.98267 29.7797 9.05381 29.6749 9.09835C29.57 9.14288 29.4554 9.15926 29.3423 9.14586C29.2292 9.13246 29.1215 9.08975 29.03 9.02196C28.9385 8.95416 28.8663 8.86364 28.8206 8.75938C27.8235 6.54311 26.2074 4.66159 24.1665 3.34075C22.1255 2.0199 19.7465 1.31587 17.315 1.3132Z" fill="#2D527C"/>
<path d="M19.9248 20.3604C19.9644 20.3602 20.0035 20.3688 20.0393 20.3857C20.0752 20.4025 20.1068 20.4271 20.1319 20.4578L20.7037 21.0734C20.2685 21.5764 19.7282 21.978 19.121 22.25C18.5014 22.5313 17.7526 22.6711 16.8727 22.6711C16.1115 22.6711 15.4211 22.5384 14.7979 22.2748C14.1927 22.024 13.6491 21.6449 13.2046 21.1637C12.7512 20.6665 12.4031 20.0827 12.1814 19.4475C11.9332 18.7412 11.8104 17.997 11.8185 17.2484C11.8185 16.4487 11.9459 15.7145 12.1973 15.0475C12.4229 14.4109 12.7807 13.8293 13.2472 13.3408C13.7137 12.8523 14.2784 12.468 14.9041 12.2132C15.5752 11.9436 16.293 11.8095 17.0161 11.8186C17.7721 11.8186 18.4395 11.9407 19.0184 12.1813C19.5955 12.4219 20.1036 12.751 20.5444 13.165L20.0699 13.8249C20.0411 13.8737 20.0018 13.9154 19.9549 13.947C19.8978 13.9813 19.8319 13.9979 19.7654 13.9948C19.6769 13.9948 19.5672 13.947 19.4397 13.8497C19.0553 13.5583 18.621 13.3394 18.158 13.2039C17.7844 13.0986 17.3971 13.0497 17.009 13.0588C16.4603 13.0588 15.9593 13.1562 15.5025 13.3455C15.0548 13.5305 14.6539 13.8127 14.3288 14.1717C14.0013 14.5308 13.7446 14.9714 13.5622 15.4898C13.3726 16.0551 13.2804 16.6486 13.2896 17.2448C13.2896 17.9065 13.3852 18.4957 13.5746 19.0141C13.7641 19.5325 14.0243 19.9712 14.3536 20.3286C14.6829 20.686 15.0688 20.9602 15.5167 21.1478C15.9646 21.3353 16.4479 21.4291 16.9666 21.4291C17.2834 21.4291 17.5685 21.4114 17.8216 21.3724C18.0621 21.3402 18.2983 21.2821 18.5262 21.1991C18.7371 21.1228 18.9384 21.0224 19.1263 20.9001C19.3122 20.778 19.4963 20.6329 19.6805 20.4666C19.746 20.4023 19.833 20.3645 19.9248 20.3604Z" fill="#2D527C"/>
<path d="M31.9787 17.2501C31.9787 18.0445 31.853 18.7734 31.5999 19.4404C31.3633 20.0779 31.0002 20.6611 30.5324 21.1548C30.0657 21.6396 29.5016 22.0201 28.8771 22.2712C28.197 22.5412 27.4704 22.6752 26.7386 22.6657C25.9579 22.6657 25.2462 22.5348 24.6036 22.2712C23.9802 22.02 23.4172 21.6395 22.9519 21.1548C22.4831 20.6618 22.1199 20.0785 21.8844 19.4404C21.6253 18.7396 21.4969 17.9972 21.5055 17.2501C21.5055 16.454 21.6312 15.725 21.8844 15.0598C22.1375 14.3964 22.4934 13.8214 22.9519 13.3419C23.4173 12.8559 23.9801 12.4737 24.6036 12.2202C25.2816 11.9464 26.0074 11.8105 26.7386 11.8204C27.5211 11.8204 28.2327 11.953 28.8771 12.2202C29.5198 12.4856 30.0739 12.8624 30.5324 13.3419C30.9927 13.8231 31.3485 14.3964 31.5999 15.0598C31.853 15.725 31.9787 16.454 31.9787 17.2501ZM30.5023 17.2501C30.5023 16.5973 30.4138 16.0117 30.235 15.495C30.0766 15.0094 29.8192 14.5618 29.479 14.1805C29.1502 13.8202 28.745 13.5379 28.2929 13.3543C27.798 13.1555 27.2684 13.0569 26.7351 13.0641C26.1668 13.0641 25.6516 13.1614 25.186 13.3543C24.7335 13.5379 24.3276 13.8202 23.9981 14.1805C23.6689 14.5379 23.4157 14.9767 23.2369 15.495C23.0599 16.0134 22.9696 16.5973 22.9696 17.2501C22.9696 17.9012 23.0599 18.485 23.2369 19.0017C23.4157 19.5165 23.6671 19.9535 23.9981 20.3127C24.3257 20.6718 24.7222 20.9443 25.186 21.1336C25.6516 21.3247 26.1668 21.4202 26.7351 21.4202C27.3069 21.4202 27.8273 21.3247 28.2929 21.1336C28.7568 20.9443 29.1515 20.67 29.479 20.3127C29.8065 19.9535 30.0562 19.5165 30.235 19.0017C30.4155 18.485 30.5023 17.9012 30.5023 17.2501Z" fill="#2D527C"/>
<path d="M36.9391 26.758C37.0223 26.758 37.0895 26.7828 37.1391 26.8323C37.1635 26.8573 37.1826 26.8869 37.1954 26.9194C37.2082 26.9519 37.2143 26.9867 37.2135 27.0216V27.4887H33.0815V27.2251C33.0843 27.1012 33.135 26.9832 33.2232 26.896L35.2059 24.9056C35.3706 24.7375 35.5193 24.5783 35.6556 24.4226C35.7901 24.2687 35.9052 24.1148 36.0008 23.9573C36.0964 23.8016 36.1672 23.6441 36.2203 23.4849C36.2731 23.319 36.2994 23.1459 36.2982 22.9718C36.3018 22.809 36.2723 22.647 36.2115 22.4959C36.161 22.3671 36.0818 22.2514 35.98 22.1576C35.8782 22.0638 35.7563 21.9943 35.6237 21.9545C35.3399 21.8626 35.034 21.8639 34.7509 21.9581C34.4979 22.0433 34.2825 22.2141 34.142 22.4411C34.0728 22.556 34.0232 22.6815 33.995 22.8126C33.9614 22.9134 33.9136 22.9807 33.8552 23.0143C33.795 23.0479 33.7135 23.0568 33.6056 23.0426L33.2037 22.9718C33.2444 22.6905 33.3223 22.4411 33.4409 22.2234C33.556 22.0076 33.7047 21.8254 33.8817 21.6768C34.0588 21.5317 34.2606 21.4202 34.4872 21.3424C34.7155 21.2663 34.9616 21.2291 35.2272 21.2291C35.4892 21.2291 35.7335 21.2681 35.9601 21.3441C36.1778 21.4122 36.3785 21.526 36.5486 21.678C36.7186 21.8299 36.8542 22.0165 36.9461 22.2252C37.0444 22.4542 37.0927 22.7015 37.0878 22.9506C37.0878 23.1806 37.0541 23.3964 36.9851 23.5911C36.9156 23.7895 36.8216 23.9785 36.7054 24.1537C36.5868 24.3341 36.4505 24.5075 36.2964 24.6774C36.1424 24.8472 35.9778 25.0188 35.8061 25.1922L34.1721 26.8571C34.2871 26.827 34.404 26.8004 34.5226 26.7827C34.6394 26.7633 34.7545 26.7544 34.8642 26.7544H36.9391V26.758Z" fill="#2D527C"/>
</svg>
