<svg width="447" height="330" viewBox="0 0 447 330" fill="none" xmlns="http://www.w3.org/2000/svg">
<path d="M123.148 233.763C177.548 233.763 221.648 189.439 221.648 134.763C221.648 80.087 177.548 35.7632 123.148 35.7632C68.7484 35.7632 24.6484 80.087 24.6484 134.763C24.6484 189.439 68.7484 233.763 123.148 233.763Z" fill="#FA9E42"/>
<g filter="url(#filter0_f_487:1303)">
<path d="M116.03 120.684C148.767 103.296 167.077 73.7094 156.928 54.6002C146.778 35.4909 112.012 34.0954 79.2749 51.4833C46.5383 68.8712 28.228 98.4579 38.3778 117.567C48.5275 136.676 83.2938 138.072 116.03 120.684Z" fill="#F8E36F"/>
</g>
<g filter="url(#filter1_d_487:1303)">
<path d="M316.993 297.763H125.561C106.991 297.749 89.146 290.552 75.7621 277.678C62.3782 264.804 54.4932 247.252 53.7577 228.696C53.0221 210.141 59.4932 192.02 71.8161 178.127C84.1391 164.234 101.358 155.647 119.869 154.163C122.509 135.523 130.927 118.18 143.937 104.573C156.948 90.9664 173.897 81.7811 192.4 78.3095C210.903 74.8379 230.029 77.2547 247.087 85.2199C264.145 93.185 278.277 106.298 287.493 122.713C304.399 116.861 322.664 116.177 339.959 120.749C357.255 125.321 372.796 134.941 384.602 148.382C396.407 161.823 403.941 178.476 406.243 196.216C408.545 213.957 405.51 231.981 397.526 247.99C392.84 262.454 383.693 275.061 371.397 284.003C359.101 292.945 344.289 297.762 329.086 297.763H316.993Z" fill="url(#paint0_linear_487:1303)"/>
<path d="M329.085 296.763C336.805 296.763 344.395 295.53 351.644 293.099C358.654 290.748 365.236 287.318 371.206 282.903C377.107 278.539 382.28 273.311 386.581 267.365C390.936 261.346 394.298 254.723 396.574 247.682L396.597 247.61L396.631 247.542C399.658 241.494 401.989 235.096 403.559 228.526C405.175 221.766 405.994 214.78 405.994 207.763C405.994 201.724 405.385 195.688 404.186 189.825C403.016 184.111 401.272 178.491 399 173.12C396.77 167.847 394.009 162.761 390.795 158.003C387.611 153.29 383.954 148.858 379.926 144.83C375.898 140.803 371.467 137.146 366.754 133.962C361.996 130.748 356.91 127.987 351.636 125.756C346.265 123.485 340.645 121.74 334.931 120.571C329.068 119.371 323.033 118.763 316.994 118.763C306.994 118.763 297.179 120.408 287.821 123.654L287.031 123.928L286.621 123.199C279.006 109.657 267.928 98.2848 254.585 90.311C247.838 86.2784 240.589 83.1622 233.039 81.0489C225.251 78.8686 217.161 77.7632 208.994 77.7632C198.009 77.7632 187.286 79.7402 177.123 83.6392C167.305 87.4059 158.299 92.8469 150.354 99.8112C142.454 106.735 135.899 114.905 130.87 124.094C125.717 133.508 122.349 143.67 120.86 154.298L120.748 155.094L119.947 155.156C110.989 155.857 102.37 158.216 94.3302 162.166C86.5178 166.005 79.5416 171.197 73.5954 177.598C61.3773 190.75 54.6484 207.886 54.6484 225.85C54.6484 235.424 56.5232 244.71 60.2207 253.452C61.9979 257.654 64.1976 261.706 66.7587 265.497C69.2956 269.252 72.2092 272.784 75.4183 275.993C78.6275 279.202 82.1588 282.116 85.9139 284.652C89.7049 287.214 93.7574 289.413 97.9591 291.19C106.701 294.888 115.988 296.763 125.561 296.763H316.994H329.085ZM329.085 297.763H316.994H125.561C85.845 297.763 53.6484 265.566 53.6484 225.85C53.6484 188.049 82.8131 157.06 119.869 154.159C125.999 110.421 163.565 76.7632 208.994 76.7632C242.696 76.7632 272.071 95.2863 287.493 122.709C296.735 119.504 306.661 117.763 316.994 117.763C366.699 117.763 406.994 158.058 406.994 207.763C406.994 222.222 403.585 235.884 397.525 247.99C388.188 276.872 361.076 297.763 329.085 297.763Z" fill="white" fill-opacity="0.5"/>
</g>
<defs>
<filter id="filter0_f_487:1303" x="0" y="0" width="195.306" height="172.167" filterUnits="userSpaceOnUse" color-interpolation-filters="sRGB">
<feFlood flood-opacity="0" result="BackgroundImageFix"/>
<feBlend mode="normal" in="SourceGraphic" in2="BackgroundImageFix" result="shape"/>
<feGaussianBlur stdDeviation="10" result="effect1_foregroundBlur_487:1303"/>
</filter>
<filter id="filter1_d_487:1303" x="33.6484" y="48.7632" width="413.346" height="281" filterUnits="userSpaceOnUse" color-interpolation-filters="sRGB">
<feFlood flood-opacity="0" result="BackgroundImageFix"/>
<feColorMatrix in="SourceAlpha" type="matrix" values="0 0 0 0 0 0 0 0 0 0 0 0 0 0 0 0 0 0 127 0" result="hardAlpha"/>
<feOffset dx="10" dy="2"/>
<feGaussianBlur stdDeviation="15"/>
<feColorMatrix type="matrix" values="0 0 0 0 0.258824 0 0 0 0 0.627451 0 0 0 0 0.941176 0 0 0 0.596 0"/>
<feBlend mode="normal" in2="BackgroundImageFix" result="effect1_dropShadow_487:1303"/>
<feBlend mode="normal" in="SourceGraphic" in2="effect1_dropShadow_487:1303" result="shape"/>
</filter>
<linearGradient id="paint0_linear_487:1303" x1="230.346" y1="76.7656" x2="332.989" y2="324.929" gradientUnits="userSpaceOnUse">
<stop stop-color="white" stop-opacity="0.604"/>
<stop offset="1" stop-color="white" stop-opacity="0.2"/>
</linearGradient>
</defs>
</svg>
