<svg width="39" height="50" viewBox="0 0 39 50" fill="none" xmlns="http://www.w3.org/2000/svg">
<path d="M0 30.6863C0 28.3824 0.628452 25.7394 1.88536 22.7574C3.14226 19.7753 4.75828 16.8873 6.73341 14.0931C10.8143 8.70098 14.3483 4.63235 17.3355 1.88725L19.2943 0C19.9472 0.686274 20.6655 1.31536 21.449 1.88725C22.5263 2.98203 24.1668 4.79984 26.3705 7.34069C28.5742 9.88154 30.4595 12.1895 32.0266 14.2647C33.8874 16.9118 35.4626 19.7426 36.7522 22.7574C38.0417 25.7721 38.6865 28.415 38.6865 30.6863C38.6865 33.3007 38.1805 35.7966 37.1684 38.174C36.1564 40.5515 34.7893 42.6062 33.0672 44.3382C31.3451 46.0703 29.2842 47.4469 26.8847 48.4681C24.4851 49.4894 21.955 50 19.2943 50C16.6825 50 14.1891 49.5057 11.8141 48.5172C9.43902 47.5286 7.38635 46.1806 5.65607 44.473C3.92578 42.7655 2.55054 40.7149 1.53032 38.3211C0.510107 35.9273 0 33.3824 0 30.6863ZM5.90092 23.0147C5.90092 25.1879 6.35797 26.9199 7.27209 28.2108C8.1862 29.5016 9.57369 30.1471 11.4346 30.1471C13.3118 30.1471 14.7115 29.5057 15.6338 28.223C16.556 26.9404 17.0253 25.2042 17.0417 23.0147C17.0253 20.8252 16.556 19.085 15.6338 17.7941C14.7115 16.5033 13.3118 15.8578 11.4346 15.8578C9.57369 15.8578 8.1862 16.5033 7.27209 17.7941C6.35797 19.085 5.90092 20.8252 5.90092 23.0147ZM10.0144 23.0147C10.0144 22.6225 10.0185 22.3203 10.0267 22.1078C10.0348 21.8954 10.0511 21.6095 10.0756 21.25C10.1001 20.8905 10.1409 20.6087 10.1981 20.4044C10.2552 20.2002 10.3327 19.9877 10.4307 19.7672C10.5286 19.5466 10.6633 19.3873 10.8347 19.2892C11.0061 19.1912 11.206 19.1422 11.4346 19.1422C11.7937 19.1422 12.0793 19.2484 12.2915 19.4608C12.5037 19.6732 12.6547 20.0082 12.7445 20.4657C12.8343 20.9232 12.8873 21.3154 12.9037 21.6422C12.92 21.969 12.9282 22.4265 12.9282 23.0147C12.9282 23.6029 12.92 24.0564 12.9037 24.375C12.8873 24.6936 12.8343 25.0817 12.7445 25.5392C12.6547 25.9967 12.5037 26.3317 12.2915 26.5441C12.0793 26.7565 11.7937 26.8627 11.4346 26.8627C11.206 26.8627 11.0061 26.8137 10.8347 26.7157C10.6633 26.6176 10.5286 26.4583 10.4307 26.2377C10.3327 26.0172 10.2552 25.8047 10.1981 25.6005C10.1409 25.3962 10.1001 25.1144 10.0756 24.7549C10.0511 24.3954 10.0348 24.1136 10.0267 23.9093C10.0185 23.7051 10.0144 23.4069 10.0144 23.0147ZM11.5325 43.2843H14.9849L28.011 15.1961H24.4851L11.5325 43.2843ZM22.7712 35.4657C22.8038 37.6552 23.2813 39.3954 24.2036 40.6863C25.1258 41.9771 26.5174 42.6225 28.3783 42.6225C30.2555 42.6225 31.647 41.9812 32.553 40.6985C33.4589 39.4158 33.9201 37.6716 33.9364 35.4657C33.9201 33.2761 33.4589 31.54 32.553 30.2574C31.647 28.9747 30.2555 28.3333 28.3783 28.3333C26.5174 28.3333 25.1258 28.9747 24.2036 30.2574C23.2813 31.54 22.8038 33.2761 22.7712 35.4657ZM26.8847 35.4657C26.8847 34.8774 26.8928 34.424 26.9092 34.1054C26.9255 33.7868 26.9785 33.3987 27.0683 32.9412C27.1581 32.4837 27.3091 32.1487 27.5213 31.9363C27.7335 31.7239 28.0192 31.6176 28.3783 31.6176C28.6231 31.6176 28.8312 31.6667 29.0026 31.7647C29.174 31.8627 29.3128 32.0261 29.4189 32.2549C29.525 32.4837 29.6107 32.692 29.676 32.8799C29.7413 33.0678 29.7821 33.3497 29.7984 33.7255L29.8351 34.5711L29.8474 35.4657C29.8474 35.8905 29.8433 36.1969 29.8351 36.3848L29.7984 37.2304L29.676 38.076L29.4189 38.701L29.0026 39.1912L28.3783 39.3382C28.0192 39.3382 27.7335 39.232 27.5213 39.0196C27.3091 38.8072 27.1581 38.4722 27.0683 38.0147C26.9785 37.5572 26.9255 37.165 26.9092 36.8382C26.8928 36.5114 26.8847 36.0539 26.8847 35.4657Z" fill="#00AAEF"/>
</svg>
