<svg width="21" height="26" viewBox="0 0 21 26" fill="none" xmlns="http://www.w3.org/2000/svg">
<path d="M17.4276 5.67811C16.8965 5.67811 16.3774 5.82969 15.9358 6.11368C15.4942 6.39767 15.1501 6.80131 14.9468 7.27357C14.7436 7.74583 14.6904 8.26549 14.794 8.76684C14.8977 9.26818 15.1534 9.7287 15.5289 10.0901C15.9044 10.4516 16.3829 10.6978 16.9038 10.7975C17.4246 10.8972 17.9645 10.846 18.4552 10.6504C18.9458 10.4548 19.3652 10.1235 19.6602 9.6985C19.9553 9.27348 20.1128 8.77379 20.1128 8.26262C20.112 7.5774 19.8288 6.92047 19.3254 6.43595C18.822 5.95142 18.1395 5.67888 17.4276 5.67811ZM17.4276 9.98563C17.0736 9.98563 16.7275 9.88458 16.4331 9.69525C16.1387 9.50593 15.9093 9.23683 15.7738 8.92199C15.6383 8.60715 15.6028 8.26071 15.6719 7.92648C15.741 7.59225 15.9115 7.28524 16.1618 7.04427C16.4122 6.8033 16.7311 6.6392 17.0784 6.57272C17.4256 6.50624 17.7856 6.54036 18.1126 6.67077C18.4397 6.80118 18.7193 7.02202 18.916 7.30537C19.1127 7.58872 19.2177 7.92184 19.2177 8.26262C19.2172 8.71944 19.0284 9.15739 18.6928 9.48041C18.3572 9.80342 17.9022 9.98512 17.4276 9.98563ZM11.1622 15.2734V4.8166C11.1622 3.78842 10.7379 2.80235 9.98254 2.07531C9.2272 1.34828 8.20273 0.939835 7.13451 0.939835C6.06628 0.939835 5.04181 1.34828 4.28647 2.07531C3.53112 2.80235 3.10677 3.78842 3.10677 4.8166V15.2734C2.12192 16.069 1.4152 17.1369 1.08252 18.3323C0.749832 19.5277 0.807287 20.7927 1.24709 21.9556C1.68689 23.1184 2.48773 24.1229 3.54096 24.8327C4.59418 25.5425 5.84878 25.9233 7.13451 25.9233C8.42023 25.9233 9.67483 25.5425 10.7281 24.8327C11.7813 24.1229 12.5821 23.1184 13.0219 21.9556C13.4617 20.7927 13.5192 19.5277 13.1865 18.3323C12.8538 17.1369 12.1471 16.069 11.1622 15.2734ZM7.13451 25.062C6.01923 25.0619 4.93164 24.7277 4.0227 24.1056C3.11375 23.4836 2.42855 22.6046 2.06221 21.5907C1.69587 20.5768 1.66655 19.4783 1.97834 18.4476C2.29013 17.4169 2.92755 16.5053 3.80211 15.8391C3.86352 15.7998 3.91389 15.7465 3.94873 15.6839C3.98357 15.6214 4.00181 15.5515 4.00182 15.4805V4.8166C4.00182 4.01691 4.33187 3.24996 4.91937 2.68449C5.50686 2.11902 6.30367 1.80134 7.13451 1.80134C7.96534 1.80134 8.76216 2.11902 9.34965 2.68449C9.93714 3.24996 10.2672 4.01691 10.2672 4.8166V15.4804C10.2672 15.55 10.2848 15.6186 10.3184 15.6802C10.3521 15.7418 10.4008 15.7947 10.4603 15.8342C11.3365 16.4994 11.9756 17.4109 12.2888 18.4418C12.6021 19.4728 12.5738 20.5721 12.2081 21.5869C11.8423 22.6017 11.1572 23.4817 10.248 24.1044C9.33872 24.7272 8.25048 25.0619 7.13451 25.062ZM7.58203 17.345V9.12413C7.58203 9.00988 7.53488 8.90032 7.45095 8.81954C7.36703 8.73876 7.2532 8.69337 7.13451 8.69337C7.01581 8.69337 6.90198 8.73876 6.81806 8.81954C6.73413 8.90032 6.68698 9.00988 6.68698 9.12413V17.345C6.02312 17.453 5.42564 17.7971 5.01294 18.3092C4.60025 18.8212 4.40245 19.4638 4.45876 20.1095C4.51506 20.7553 4.82135 21.3571 5.31694 21.7958C5.81252 22.2345 6.46123 22.4779 7.13451 22.4779C7.80778 22.4779 8.45649 22.2345 8.95208 21.7958C9.44766 21.3571 9.75395 20.7553 9.81026 20.1095C9.86656 19.4638 9.66877 18.8212 9.25607 18.3092C8.84337 17.7971 8.24589 17.453 7.58203 17.345ZM7.13451 21.6159C6.78046 21.6159 6.43436 21.5149 6.13998 21.3256C5.8456 21.1362 5.61615 20.8671 5.48067 20.5523C5.34518 20.2375 5.30973 19.891 5.3788 19.5568C5.44787 19.2226 5.61836 18.9155 5.86871 18.6746C6.11906 18.4336 6.43803 18.2695 6.78527 18.203C7.13252 18.1365 7.49245 18.1707 7.81955 18.3011C8.14665 18.4315 8.42622 18.6523 8.62292 18.9357C8.81962 19.219 8.92461 19.5522 8.92461 19.8929C8.92408 20.3497 8.73531 20.7877 8.39971 21.1107C8.06412 21.4337 7.60911 21.6154 7.13451 21.6159Z" fill="#4050D1"/>
</svg>
