<svg width="32" height="30" viewBox="0 0 32 30" fill="none" xmlns="http://www.w3.org/2000/svg">
<path d="M12.8794 17.6232V5.55766C12.8794 4.3713 12.3898 3.23353 11.5183 2.39464C10.6467 1.55576 9.46464 1.08447 8.23208 1.08447C6.99951 1.08447 5.81743 1.55576 4.94588 2.39464C4.07432 3.23353 3.58469 4.3713 3.58469 5.55766V17.6232C2.44832 18.5412 1.63288 19.7734 1.24901 21.1527C0.865143 22.532 0.931437 23.9916 1.4389 25.3334C1.94636 26.6751 2.87041 27.8342 4.08568 28.6532C5.30093 29.4722 6.74854 29.9115 8.23208 29.9115C9.7156 29.9115 11.1632 29.4722 12.3785 28.6532C13.5938 27.8342 14.5178 26.6751 15.0252 25.3334C15.5327 23.9916 15.599 22.532 15.2151 21.1527C14.8313 19.7734 14.0158 18.5412 12.8794 17.6232ZM8.23208 28.9177C6.94522 28.9176 5.69031 28.532 4.64153 27.8142C3.59274 27.0965 2.80213 26.0823 2.37943 24.9124C1.95673 23.7425 1.92289 22.475 2.28265 21.2857C2.64241 20.0965 3.37789 19.0446 4.387 18.2759C4.45786 18.2306 4.51598 18.1691 4.55618 18.0969C4.59638 18.0247 4.61743 17.9441 4.61744 17.8622V5.55766C4.61744 4.63494 4.99826 3.75 5.67615 3.09754C6.35402 2.44507 7.27342 2.07852 8.23208 2.07852C9.19073 2.07852 10.1101 2.44507 10.788 3.09754C11.4659 3.75 11.8467 4.63494 11.8467 5.55766V17.862C11.8467 17.9424 11.867 18.0215 11.9058 18.0926C11.9447 18.1637 12.0009 18.2247 12.0695 18.2703C13.0805 19.0378 13.818 20.0895 14.1793 21.279C14.5408 22.4687 14.5082 23.7371 14.0862 24.908C13.6641 26.0789 12.8736 27.0943 11.8246 27.8128C10.7754 28.5314 9.51974 28.9176 8.23208 28.9177ZM8.74845 20.0135V10.5279C8.74845 10.3961 8.69404 10.2696 8.5972 10.1764C8.50037 10.0832 8.36903 10.0309 8.23208 10.0309C8.09512 10.0309 7.96378 10.0832 7.86694 10.1764C7.7701 10.2696 7.7157 10.3961 7.7157 10.5279V20.0135C6.94971 20.1381 6.26031 20.5352 5.78411 21.126C5.30793 21.7168 5.0797 22.4583 5.14468 23.2033C5.20964 23.9485 5.56305 24.6428 6.13488 25.149C6.70671 25.6552 7.45522 25.9361 8.23208 25.9361C9.00893 25.9361 9.75744 25.6552 10.3293 25.149C10.9011 24.6428 11.2545 23.9485 11.3195 23.2033C11.3844 22.4583 11.1562 21.7168 10.68 21.126C10.2038 20.5352 9.51444 20.1381 8.74845 20.0135ZM8.23208 24.9415C7.82356 24.9415 7.42421 24.8249 7.08454 24.6065C6.74488 24.388 6.48013 24.0775 6.3238 23.7142C6.16747 23.351 6.12656 22.9512 6.20626 22.5656C6.28596 22.18 6.48268 21.8256 6.77154 21.5477C7.06041 21.2696 7.42845 21.0802 7.82911 21.0035C8.22978 20.9268 8.64509 20.9662 9.02251 21.1167C9.39993 21.2672 9.72251 21.5219 9.94948 21.8489C10.1764 22.1758 10.2976 22.5603 10.2976 22.9534C10.297 23.4805 10.0792 23.9859 9.69193 24.3585C9.30471 24.7312 8.77969 24.9409 8.23208 24.9415Z" fill="#4050D1"/>
<path d="M15.32 12C15.232 12 15.164 11.976 15.116 11.928C15.068 11.872 15.044 11.804 15.044 11.724V3.888C15.044 3.8 15.068 3.732 15.116 3.684C15.164 3.628 15.232 3.6 15.32 3.6H18.368C18.96 3.6 19.472 3.696 19.904 3.888C20.344 4.08 20.684 4.368 20.924 4.752C21.164 5.128 21.284 5.6 21.284 6.168C21.284 6.736 21.164 7.208 20.924 7.584C20.684 7.96 20.344 8.244 19.904 8.436C19.472 8.628 18.96 8.724 18.368 8.724H16.244V11.724C16.244 11.804 16.216 11.872 16.16 11.928C16.112 11.976 16.044 12 15.956 12H15.32ZM16.232 7.716H18.308C18.9 7.716 19.344 7.584 19.64 7.32C19.936 7.056 20.084 6.672 20.084 6.168C20.084 5.672 19.94 5.288 19.652 5.016C19.364 4.744 18.916 4.608 18.308 4.608H16.232V7.716ZM24.21 12.12C23.81 12.12 23.446 12.04 23.118 11.88C22.79 11.72 22.526 11.504 22.326 11.232C22.126 10.96 22.026 10.652 22.026 10.308C22.026 9.756 22.25 9.316 22.698 8.988C23.146 8.66 23.73 8.444 24.45 8.34L26.238 8.088V7.74C26.238 7.356 26.126 7.056 25.902 6.84C25.686 6.624 25.33 6.516 24.834 6.516C24.474 6.516 24.182 6.588 23.958 6.732C23.742 6.876 23.59 7.06 23.502 7.284C23.454 7.404 23.37 7.464 23.25 7.464H22.71C22.622 7.464 22.554 7.44 22.506 7.392C22.466 7.336 22.446 7.272 22.446 7.2C22.446 7.08 22.49 6.932 22.578 6.756C22.674 6.58 22.818 6.408 23.01 6.24C23.202 6.072 23.446 5.932 23.742 5.82C24.046 5.7 24.414 5.64 24.846 5.64C25.326 5.64 25.73 5.704 26.058 5.832C26.386 5.952 26.642 6.116 26.826 6.324C27.018 6.532 27.154 6.768 27.234 7.032C27.322 7.296 27.366 7.564 27.366 7.836V11.724C27.366 11.804 27.338 11.872 27.282 11.928C27.234 11.976 27.17 12 27.09 12H26.538C26.45 12 26.382 11.976 26.334 11.928C26.286 11.872 26.262 11.804 26.262 11.724V11.208C26.158 11.352 26.018 11.496 25.842 11.64C25.666 11.776 25.446 11.892 25.182 11.988C24.918 12.076 24.594 12.12 24.21 12.12ZM24.462 11.22C24.79 11.22 25.09 11.152 25.362 11.016C25.634 10.872 25.846 10.652 25.998 10.356C26.158 10.06 26.238 9.688 26.238 9.24V8.904L24.846 9.108C24.278 9.188 23.85 9.324 23.562 9.516C23.274 9.7 23.13 9.936 23.13 10.224C23.13 10.448 23.194 10.636 23.322 10.788C23.458 10.932 23.626 11.04 23.826 11.112C24.034 11.184 24.246 11.22 24.462 11.22Z" fill="#4050D1"/>
</svg>
