<svg width="8" height="12" viewBox="0 0 8 12" fill="none" xmlns="http://www.w3.org/2000/svg">
<path d="M3.7168 0.117515C3.75396 0.0802644 3.7981 0.0507102 3.84669 0.030545C3.89529 0.0103798 3.94739 0 4 0C4.05261 0 4.10471 0.0103798 4.15331 0.030545C4.2019 0.0507102 4.24604 0.0802644 4.2832 0.117515C4.492 0.327115 5.4096 1.27752 6.2776 2.51992C7.1336 3.74472 8 5.33271 8 6.80071C8 8.22471 7.5384 9.33271 6.7872 10.0847C6.0392 10.8343 5.0328 11.2007 4 11.2007C2.9672 11.2007 1.9608 10.8343 1.2128 10.0847C0.4616 9.33271 0 8.22552 0 6.80071C0 5.33271 0.8664 3.74472 1.7224 2.52072C2.32176 1.66752 2.9887 0.863867 3.7168 0.117515ZM2.3776 2.97832C1.5336 4.18632 0.8 5.59831 0.8 6.80071C0.8 8.04632 1.2 8.93911 1.7792 9.51911C2.36 10.1031 3.1552 10.4007 4 10.4007C4.8448 10.4007 5.6392 10.1023 6.2208 9.51911C6.8008 8.93911 7.2 8.04711 7.2 6.80071C7.2 5.59831 6.4672 4.18712 5.6224 2.97832C5.1273 2.27584 4.58526 1.60765 4 0.978315C3.41473 1.60765 2.8727 2.27584 2.3776 2.97832Z" fill="#00AAEF"/>
</svg>
