<svg width="42" height="22" viewBox="0 0 42 22" fill="none" xmlns="http://www.w3.org/2000/svg">
<path d="M1.99799 15.2948C1.64709 15.2945 1.30241 15.2018 0.998657 15.0261C0.694904 14.8504 0.44275 14.5979 0.267456 14.294C0.0921622 13.99 -9.00206e-05 13.6452 6.59155e-08 13.2943C9.01524e-05 12.9434 0.0924944 12.5987 0.267944 12.2948L6.76794 1.03885C6.89831 0.809554 7.07273 0.608286 7.28119 0.446682C7.48964 0.285079 7.72806 0.166302 7.9826 0.0971949C8.23715 0.0280874 8.50284 0.0100361 8.7644 0.0440333C9.02596 0.0780305 9.27817 0.163432 9.50659 0.295315C9.73501 0.427198 9.93512 0.602943 10.0953 0.812466C10.2556 1.02199 10.3728 1.26114 10.4402 1.51614C10.5076 1.77114 10.5239 2.03698 10.4882 2.29831C10.4524 2.55963 10.3654 2.8113 10.232 3.03885L3.73199 14.2948C3.55629 14.5992 3.30349 14.8518 2.99908 15.0274C2.69467 15.2029 2.34939 15.2952 1.99799 15.2948Z" fill="url(#paint0_linear_607_69)"/>
<path d="M9.1391 21.3588C8.7882 21.3585 8.44358 21.2658 8.13983 21.0901C7.83608 20.9144 7.58386 20.6619 7.40857 20.3579C7.23328 20.0539 7.14102 19.7092 7.14111 19.3583C7.1412 19.0074 7.23361 18.6627 7.40906 18.3588L17.4091 1.03778C17.5372 0.804305 17.7107 0.598823 17.9193 0.433288C18.1279 0.267752 18.3675 0.14555 18.624 0.0738516C18.8805 0.00215329 19.1487 -0.0176097 19.4129 0.0157461C19.6771 0.049102 19.932 0.134874 20.1627 0.268065C20.3933 0.401257 20.595 0.579191 20.7559 0.791381C20.9169 1.00357 21.0338 1.24573 21.0999 1.50372C21.166 1.76171 21.1799 2.03033 21.1407 2.29376C21.1016 2.55719 21.0103 2.81012 20.8721 3.03778L10.8721 20.3588C10.6965 20.663 10.4439 20.9155 10.1396 21.0911C9.83543 21.2666 9.49033 21.359 9.1391 21.3588Z" fill="url(#paint1_linear_607_69)"/>
<path d="M33.9201 14.4298C33.5692 14.4294 33.2245 14.3367 32.9208 14.161C32.617 13.9854 32.3649 13.7328 32.1896 13.4289C32.0143 13.1249 31.922 12.7802 31.9221 12.4293C31.9222 12.0784 32.0146 11.7337 32.1901 11.4298L38.1901 1.03775C38.4572 0.582138 38.8936 0.250685 39.4042 0.115693C39.9148 -0.0192991 40.4581 0.053158 40.9155 0.317231C41.3728 0.581304 41.7072 1.01555 41.8456 1.52524C41.984 2.03492 41.9151 2.57863 41.6541 3.03775L35.6541 13.4298C35.4784 13.7341 35.2256 13.9868 34.9212 14.1623C34.6168 14.3379 34.2715 14.4301 33.9201 14.4298Z" fill="url(#paint2_linear_607_69)"/>
<path d="M22.0292 17.8948C21.6783 17.8944 21.3337 17.8018 21.0299 17.6261C20.7262 17.4504 20.474 17.1979 20.2987 16.8939C20.1234 16.59 20.0312 16.2452 20.0313 15.8943C20.0313 15.5434 20.1237 15.1987 20.2992 14.8948L28.2992 1.03885C28.4296 0.809554 28.604 0.608286 28.8124 0.446682C29.0209 0.285079 29.2593 0.166302 29.5139 0.0971949C29.7684 0.0280874 30.0341 0.0100361 30.2957 0.0440333C30.5572 0.0780305 30.8094 0.163432 31.0378 0.295315C31.2663 0.427198 31.4664 0.602943 31.6266 0.812466C31.7868 1.02199 31.904 1.26114 31.9714 1.51614C32.0389 1.77114 32.0551 2.03698 32.0194 2.29831C31.9837 2.55963 31.8966 2.8113 31.7632 3.03885L23.7632 16.8948C23.5875 17.1991 23.3347 17.4518 23.0303 17.6273C22.7259 17.8029 22.3806 17.8951 22.0292 17.8948Z" fill="url(#paint3_linear_607_69)"/>
<defs>
<linearGradient id="paint0_linear_607_69" x1="0" y1="7.66109" x2="10.5066" y2="7.66109" gradientUnits="userSpaceOnUse">
<stop stop-color="#4050D1"/>
<stop offset="1" stop-color="#4050D1"/>
</linearGradient>
<linearGradient id="paint1_linear_607_69" x1="7.14111" y1="10.6794" x2="21.1624" y2="10.6794" gradientUnits="userSpaceOnUse">
<stop stop-color="#4050D1"/>
<stop offset="1" stop-color="#4050D1"/>
</linearGradient>
<linearGradient id="paint2_linear_607_69" x1="31.9221" y1="7.23952" x2="41.9155" y2="7.23952" gradientUnits="userSpaceOnUse">
<stop stop-color="#4050D1"/>
<stop offset="1" stop-color="#4050D1"/>
</linearGradient>
<linearGradient id="paint3_linear_607_69" x1="20.0312" y1="8.96107" x2="32.0379" y2="8.96107" gradientUnits="userSpaceOnUse">
<stop stop-color="#4050D1"/>
<stop offset="1" stop-color="#4050D1"/>
</linearGradient>
</defs>
</svg>
