<svg width="20" height="17" viewBox="0 0 20 17" fill="none" xmlns="http://www.w3.org/2000/svg">
<path d="M1.99667 8.5H0V6.8H1.99667V8.5ZM8.33333 3.0107V0H6.66667V3.0107H8.33333ZM4.33917 3.7553L2.5425 1.9227L1.36417 3.1246L3.16083 4.9572L4.33917 3.7553ZM12.2233 1.7187L10.4608 3.5156L11.6392 4.7175L13.4017 2.9206L12.2233 1.7187ZM2.47333 10.9896L0.641667 12.6208L1.7275 13.9103L3.55917 12.2791L2.47333 10.9896ZM20 13.3637C20 15.3714 18.375 17 16.3717 17H7.795C5.79167 17 4.16667 15.3714 4.16667 13.3637C4.16667 12.7092 4.3425 12.0972 4.645 11.5676C3.84167 10.7967 3.33333 9.71465 3.33333 8.5C3.33333 6.1523 5.19833 4.25 7.5 4.25C8.6075 4.25 9.6025 4.6988 10.345 5.4196C10.8858 5.2156 11.47 5.1 12.0833 5.1C14.7258 5.1 16.8775 7.17655 17.0175 9.7886C18.7125 10.0938 20 11.5779 20 13.3637ZM5 8.5C5 9.231 5.30833 9.8838 5.79583 10.3462C6.2 10.0776 6.65333 9.87785 7.14917 9.7886C7.2225 8.4201 7.85167 7.2029 8.81083 6.3495C8.4275 6.1047 7.985 5.95 7.5 5.95C6.12167 5.95 5 7.0941 5 8.5ZM18.3333 13.3637C18.3333 11.5991 16.6842 11.1384 15.4258 11.2285C15.6075 10.0054 15.2258 6.8 12.0833 6.8C8.85417 6.8 8.69833 10.0759 8.74083 11.2276C7.58667 11.1562 5.83333 11.5634 5.83333 13.3637C5.83333 14.4313 6.71333 15.3 7.795 15.3H16.3708C17.4533 15.3 18.3333 14.4313 18.3333 13.3637Z" fill="#000000" fill-opacity="0.75"/>
</svg>
