<svg width="61" height="37" viewBox="0 0 61 37" fill="none" xmlns="http://www.w3.org/2000/svg">
<path d="M27.9204 0.576961C23.5778 0.961261 18.6661 2.65584 14.5663 5.18978C10.2664 7.85243 5.69625 12.1804 2.4358 16.6505C0.642402 19.1277 0.371562 19.8542 0.770502 21.0784C1.1548 22.1886 4.35791 25.6059 7.14866 27.8409C19.1358 37.5076 33.7001 39.2021 46.8127 32.4818C51.3255 30.1613 56.4513 26.0896 59.3128 22.5443C61.0495 20.3806 60.8506 19.5406 57.5048 15.2267C56.1524 13.4614 52.0233 9.27556 50.3007 7.90916C43.4241 2.4277 35.6509 -0.120268 27.9204 0.576961ZM31.4651 6.92706C32.1629 7.25463 32.5045 7.86646 32.5045 8.7778C32.5045 9.40427 32.4332 9.60374 32.0775 10.0161C31.5792 10.5858 31.1095 10.7566 29.7998 10.8701C27.0664 11.1123 24.874 13.404 24.5318 16.3369C24.3897 17.6466 24.2897 17.9028 23.6919 18.4012C23.0794 18.9136 22.3822 18.999 21.613 18.6574C20.7163 18.2584 20.4027 17.6893 20.4027 16.4223C20.4027 12.3219 23.6913 8.12205 27.7349 7.05455C28.9879 6.72698 29.0733 6.71295 30.0554 6.69892C30.6398 6.68489 31.1522 6.77029 31.4651 6.92706ZM19.1358 9.461C18.4379 10.6426 18.2818 10.9415 17.9115 11.8815C17.0008 14.1879 16.7586 17.0207 17.257 19.4266C17.8267 22.1886 19.0083 24.381 20.9731 26.3318C22.8098 28.1825 24.8313 29.3214 27.3799 29.9765C28.875 30.3608 32.1349 30.3608 33.644 29.9765C40.6346 28.1971 45.048 21.4914 43.8237 14.5008C43.5248 12.7214 42.9978 11.3685 41.987 9.6318L41.574 8.93396L42.2712 9.28959C45.403 10.8847 49.9164 14.8137 52.9347 18.5585L54.0595 19.9682L52.4223 21.5488C48.3645 25.4637 43.4528 28.3399 38.2709 29.8203C33.8008 31.1013 28.4047 31.2154 23.8633 30.1052C18.2397 28.7382 12.2031 25.2649 7.96057 20.951L6.97847 19.9402L8.08867 18.5451C10.4805 15.5695 13.6836 12.594 16.6024 10.6291C17.8127 9.81785 19.1791 8.99191 19.3786 8.96324C19.4066 8.96263 19.2925 9.19016 19.1358 9.461Z" fill="#1F64B3"/>
</svg>
