<svg width="50" height="39" viewBox="0 0 50 39" fill="none" xmlns="http://www.w3.org/2000/svg">
<path d="M41.7603 21.1573C41.6979 21.1573 41.6361 21.1607 41.574 21.162C41.5429 21.1601 41.5121 21.1573 41.4804 21.1573H14.46C13.6736 21.1573 13.0359 21.7945 13.0359 22.5806C13.0359 23.3666 13.6736 24.0038 14.46 24.0038H35.5374C34.2828 25.4491 33.5208 27.3325 33.5208 29.3917C33.5208 33.9322 37.217 37.6262 41.7602 37.6262C46.3035 37.6262 49.9998 33.9323 49.9998 29.3917C49.9998 24.8512 46.3038 21.1573 41.7603 21.1573ZM41.7603 34.7798C38.7875 34.7798 36.3692 32.3629 36.3692 29.3919C36.3692 26.421 38.7875 24.004 41.7603 24.004C44.7331 24.004 47.1515 26.421 47.1515 29.3919C47.1515 32.3629 44.7331 34.7798 41.7603 34.7798Z" fill="#2D527C"/>
<path d="M41.6806 18.2735H7.67046C6.88403 18.2735 6.24634 17.6363 6.24634 16.8503C6.24634 16.0643 6.88403 15.4271 7.67046 15.4271H41.6806C44.6975 15.4271 47.1517 12.9744 47.1517 9.95931C47.1517 6.94427 44.6975 4.49157 41.6806 4.49157C38.6638 4.49157 36.2096 6.94427 36.2096 9.95931C36.2096 10.7454 35.5719 11.3826 34.7855 11.3826C33.9991 11.3826 33.3614 10.7454 33.3614 9.95931C33.3614 5.37482 37.0933 1.64498 41.6806 1.64498C46.2679 1.64498 50.0001 5.37472 50.0001 9.95921C50.0001 14.5437 46.2679 18.2735 41.6806 18.2735Z" fill="#2D527C"/>
<path d="M13.1796 12.6013H1.42412C0.637695 12.6013 0 11.9641 0 11.1781C0 10.3921 0.637695 9.75487 1.42412 9.75487H13.1796C13.966 9.75487 14.6037 10.3921 14.6037 11.1781C14.6037 11.9641 13.966 12.6013 13.1796 12.6013Z" fill="#2D527C"/>
<path d="M23.7981 12.6013H19.161C18.3746 12.6013 17.7369 11.9641 17.7369 11.1781C17.7369 10.3921 18.3746 9.75485 19.161 9.75485H23.7981C25.7039 9.75485 27.2546 8.20531 27.2546 6.30072C27.2546 4.39613 25.704 2.84659 23.7981 2.84659C21.8923 2.84659 20.3419 4.39613 20.3419 6.30072C20.3419 7.08676 19.7042 7.72397 18.9178 7.72397C18.1313 7.72397 17.4937 7.08676 17.4937 6.30072C17.4937 2.82649 20.3217 0 23.7982 0C27.2748 0 30.1029 2.82649 30.1029 6.30072C30.1029 9.77495 27.2746 12.6013 23.7981 12.6013Z" fill="#2D527C"/>
<path d="M25.0183 38.2843C21.8698 38.2843 19.3083 35.7245 19.3083 32.5778C19.3083 31.7917 19.9459 31.1545 20.7324 31.1545C21.5188 31.1545 22.1565 31.7917 22.1565 32.5778C22.1565 34.1547 23.4404 35.4378 25.0183 35.4378C26.5962 35.4378 27.8801 34.1547 27.8801 32.5778C27.8801 31.0008 26.5962 29.7177 25.0183 29.7177H7.67046C6.88403 29.7177 6.24634 29.0805 6.24634 28.2945C6.24634 27.5084 6.88403 26.8712 7.67046 26.8712H25.0182C28.1667 26.8712 30.7283 29.4311 30.7283 32.5778C30.7283 35.7245 28.1667 38.2843 25.0183 38.2843Z" fill="#2D527C"/>
</svg>
