<svg width="40" height="40" viewBox="0 0 40 40" fill="none" xmlns="http://www.w3.org/2000/svg">
<circle cx="20" cy="20" r="19.5" transform="rotate(-180 20 20)" stroke="#ADADAD"/>
<path d="M20.5 31C24.4356 31 28 27.8806 28 24.0315C28 20.1833 24.7478 15.589 20.5 9C16.2522 15.589 13 20.1833 13 24.0315C13 27.8806 16.5634 31 20.5 31ZM20.5 20.9167C22.0534 20.9167 23.3125 22.1477 23.3125 23.6667C23.3125 25.1856 22.0534 26.4167 20.5 26.4167C18.9466 26.4167 17.6875 25.1856 17.6875 23.6667C17.6875 22.1477 18.9466 20.9167 20.5 20.9167Z" fill="#4050D1"/>
</svg>
